<?xml version="1.0" standalone="no"?>
<!DOCTYPE svg PUBLIC "-//W3C//DTD SVG 20010904//EN"
 "http://www.w3.org/TR/2001/REC-SVG-20010904/DTD/svg10.dtd">
<svg version="1.0" xmlns="http://www.w3.org/2000/svg"
 width="5874.000000pt" height="5874.000000pt" viewBox="0 0 5874.000000 5874.000000"
 preserveAspectRatio="xMidYMid meet">

<g transform="translate(0.000000,5874.000000) scale(0.100000,-0.100000)"
fill="#000000" stroke="none">
<path d="M28770 58729 c-3393 -65 -6760 -721 -9910 -1929 -3401 -1305 -6550
-3246 -9252 -5707 -567 -516 -1278 -1220 -1789 -1773 -2188 -2366 -3967 -5055
-5271 -7970 -2009 -4490 -2847 -9399 -2452 -14360 591 -7438 4008 -14361 9574
-19400 2474 -2241 5308 -4041 8380 -5327 3079 -1288 6375 -2040 9720 -2218
584 -31 913 -39 1600 -39 681 0 1009 8 1590 39 4469 240 8785 1484 12685 3658
4501 2508 8280 6174 10937 10607 2461 4107 3872 8756 4113 13555 48 965 48
2042 0 3010 -155 3100 -799 6141 -1915 9045 -797 2076 -1867 4114 -3133 5970
-2467 3618 -5717 6650 -9492 8855 -3980 2325 -8439 3671 -13050 3940 -427 24
-704 35 -1210 45 -518 10 -562 10 -1125 -1z m1560 -220 c8597 -276 16590
-4324 21951 -11114 3306 -4188 5402 -9233 6033 -14525 154 -1289 214 -2385
203 -3745 -5 -673 -10 -855 -37 -1355 -252 -4693 -1640 -9256 -4043 -13290
-3172 -5324 -7959 -9515 -13642 -11940 -3118 -1330 -6454 -2105 -9845 -2285
-593 -31 -905 -39 -1585 -39 -677 0 -1004 8 -1585 39 -6599 353 -12855 2934
-17805 7346 -2769 2468 -5044 5438 -6694 8737 -1785 3570 -2802 7400 -3026
11402 -32 586 -39 875 -39 1630 0 755 6 1033 40 1630 248 4472 1509 8789 3701
12673 1865 3304 4369 6228 7352 8585 2656 2099 5653 3718 8851 4782 3263 1086
6692 1581 10170 1469z"/>
<path d="M37060 47614 c-19 -2 -98 -9 -175 -14 -1365 -105 -2760 -707 -3959
-1709 -320 -267 -750 -689 -1021 -999 -698 -802 -1300 -1745 -1685 -2637
-1209 -2802 -1721 -6321 -1660 -11400 18 -1481 46 -2345 170 -5160 126 -2866
154 -3693 169 -5035 16 -1402 -14 -2662 -89 -3690 -5 -74 -14 -229 -20 -345
-170 -3470 -1457 -6726 -3637 -9205 -153 -174 -253 -280 -505 -538 -241 -247
-350 -372 -440 -506 -123 -184 -172 -316 -173 -461 0 -80 4 -97 31 -156 106
-223 431 -344 989 -368 703 -31 1700 109 2349 329 354 120 635 239 996 421
622 314 1186 702 1735 1193 1691 1515 2966 3883 3550 6598 123 572 168 875
200 1333 117 1721 192 3466 235 5480 33 1562 35 1786 35 7325 1 6172 7 6857
71 9070 6 219 33 486 90 880 338 2351 1122 4498 2251 6164 218 321 501 693
732 961 48 55 102 120 121 145 92 122 234 275 555 600 548 555 712 756 862
1054 l55 110 -4 96 c-3 80 -8 105 -32 153 -72 148 -226 235 -511 289 -102 19
-150 21 -680 23 -313 1 -586 1 -605 -1z"/>
<path d="M21825 40999 c-765 -67 -1344 -400 -1608 -924 -178 -354 -263 -772
-297 -1475 -18 -365 -50 -3117 -80 -6905 -18 -2207 -24 -7225 -11 -9345 18
-2876 24 -3168 81 -3740 130 -1291 446 -2188 983 -2792 106 -119 193 -198 332
-302 191 -143 357 -234 580 -319 184 -69 266 -82 550 -82 213 0 252 3 345 23
483 106 887 395 1225 877 381 544 660 1313 770 2120 27 197 35 363 75 1530 71
2076 113 3848 152 6460 18 1146 18 6519 0 7690 -22 1543 -40 2496 -67 3635
-40 1688 -36 1596 -81 1800 -125 564 -428 1036 -844 1315 -190 127 -357 202
-611 274 -489 138 -1050 198 -1494 160z"/>
</g>
</svg>
